<?xml version="1.0"?>
<svg xmlns="http://www.w3.org/2000/svg" xmlns:xlink="http://www.w3.org/1999/xlink" version="1.1" id="Capa_1" x="0px" y="0px" viewBox="0 0 512 512" style="enable-background:new 0 0 512 512;" xml:space="preserve" width="512px" height="512px"><g><g>
	<g>
		<path d="M497,330.98h-59.997c-2.883,0-5.567,0.828-7.853,2.238c-16.849-19.223-41.721-31.17-68.894-31.17    c-18.991,0-37.154,5.849-52.527,16.913c-14.968,10.773-34.213,13.048-47.723,13.059c-32.803,0.027-64.741,0.027-64.743,0.027    c-24.812,0-44.998,20.186-44.998,44.998c0,0.284,0.016,0.563,0.021,0.846l-85.146-42.165    c-22.197-11.089-49.279-2.058-60.37,20.128c-11.116,22.229-2.16,49.233,20.155,60.391l176.754,87.877    c10.359,5.18,21.957,7.817,33.539,7.817h110.064c27.241,0,53.684-6.079,76.721-17.585v2.62c0,8.284,6.716,14.999,14.999,14.999    H497c8.284,0,14.999-6.716,14.999-14.999V345.981C512,337.696,505.284,330.98,497,330.98z M422.005,459.736    c-21.565,14.412-48.539,22.304-76.722,22.304H235.219c-6.95,0-13.908-1.643-20.154-4.766L38.311,389.397    c-7.42-3.71-10.42-12.708-6.71-20.128c3.699-7.396,12.728-10.406,20.181-6.684l104.079,51.541    c10.359,5.18,21.957,7.817,33.539,7.817h125.857c8.284,0,14.999-6.616,14.999-14.899s-6.716-14.999-14.999-14.999H195.264    c-8.271,0-14.999-6.729-14.999-14.999s6.729-15.099,14.999-15.099c0,0,31.952,0,64.768-0.027    c25.693-0.021,48.247-6.391,65.223-18.61c10.236-7.368,22.34-11.262,35.002-11.262c28.647,0,54.373,20.722,59.842,48.204    c0.002,0.011,0.004,0.021,0.006,0.032c0.354,1.762,1.017,3.378,1.899,4.83V459.736z M482.001,481.973h-29.999V360.979h29.999    V481.973z" data-original="#000000" class="active-path" data-old_color="#000000" fill="#FFFFFF"/>
	</g>
</g><g>
	<g>
		<path d="M207.276,1.622c-42.3,7.354-77.109,42.636-84.647,85.803c-4.751,27.207,1.123,54.61,16.537,77.159    c7.855,11.491,11.837,22.848,11.837,33.755c0,5.742,0,50.306,0,57.644c0,24.812,20.186,44.998,44.998,44.998h59.997    c24.812,0,44.998-20.186,44.998-44.998c0-7.352,0-52.288,0-57.85c0-10.951,3.791-22.115,10.963-32.289    c12.453-17.664,19.036-38.362,19.036-59.855C330.996,41.083,272.655-9.743,207.276,1.622z M270.998,255.983    c0,8.271-6.729,14.999-14.999,14.999h-59.997c-8.271,0-14.999-6.729-14.999-14.999v-14.999h89.996V255.983z M287.441,148.56    c-10.758,15.258-16.442,32.401-16.442,49.573v12.852H241v-89.996h14.999c8.284,0,14.999-6.716,14.999-14.999    s-6.716-14.999-14.999-14.999h-59.997c-8.284,0-14.999,6.716-14.999,14.999s6.716,14.999,14.999,14.999h14.999v89.996h-29.999    v-12.644c0-17.061-5.743-34.113-17.07-50.685c-7.765-11.359-16.106-30.132-11.751-55.07c5.316-30.439,30.648-56.266,60.234-61.408    c47.842-8.316,88.582,29.228,88.582,74.812C300.997,121.26,296.309,135.981,287.441,148.56z" data-original="#000000" class="active-path" data-old_color="#000000" fill="#FFFFFF"/>
	</g>
</g></g> </svg>
