<?xml version="1.0" encoding="iso-8859-1"?>
<!-- Generator: Adobe Illustrator 19.0.0, SVG Export Plug-In . SVG Version: 6.00 Build 0)  -->
<svg version="1.1" id="Capa_1" xmlns="http://www.w3.org/2000/svg" xmlns:xlink="http://www.w3.org/1999/xlink" x="0px" y="0px"
	 viewBox="0 0 512 512" style="enable-background:new 0 0 512 512;" xml:space="preserve" stroke="currentColor">
<g>
	<g>
		<path d="M376,61c-33.084,0-60,26.916-60,60h-60h-75c0-33.084-26.916-60-60-60s-60,26.916-60,60s26.916,60,60,60
			c22.159,0,41.537-12.084,51.928-30h151.144c10.391,17.916,29.769,30,51.928,30c33.084,0,60-26.916,60-60S409.084,61,376,61z
			 M121,151c-16.542,0-30-13.458-30-30s13.458-30,30-30s30,13.458,30,30S137.542,151,121,151z M376,151c-16.542,0-30-13.458-30-30
			s13.458-30,30-30s30,13.458,30,30S392.542,151,376,151z"/>
	</g>
</g>
<g>
	<g>
		<path d="M256,0c-33.358,0-60,28.006-60,61c0,33.084,26.916,60,60,60s60-26.916,60-60C316,27.98,289.324,0,256,0z M256,91
			c-16.542,0-30-13.458-30-30c0-16.804,13.738-31,30-31c16.262,0,30,14.196,30,31C286,77.542,272.542,91,256,91z"/>
	</g>
</g>
<g>
	<g>
		<path d="M436,181h-60h-30c-24.813,0-45,20.187-45,45c0,12.495,0,247.285,0,256h-30V346c0-8.284-6.716-15-15-15s-15,6.716-15,15
			v136h-30c0-9.209,0-243.761,0-256c0-24.813-20.187-45-45-45h-45H76c-41.464,0-76,33.535-76,75v60c0,24.874,21.097,45,46,45
			c5.257,0,10.307-0.906,15-2.57V497c0,8.284,6.716,15,15,15c6.968,0,353.491,0,360,0c8.284,0,15-6.716,15-15V358.43
			c4.693,1.664,9.743,2.57,15,2.57c24.867,0,46-20.096,46-45v-60C512,214.536,477.465,181,436,181z M181,482h-30V376
			c0-8.284-6.716-15-15-15s-15,6.716-15,15v106H91V316v-60c0-8.284-6.716-15-15-15s-15,6.716-15,15v60c0,8.271-6.729,15-15,15
			c-8.523,0-16-7.009-16-15v-60c0-24.393,21.065-45,46-45h90c8.271,0,15,6.729,15,15C181,238.495,181,473.285,181,482z M482,316
			c0,7.991-7.477,15-16,15c-8.271,0-15-6.729-15-15v-60c0-8.284-6.716-15-15-15s-15,6.716-15,15v60v166h-30V376
			c0-8.284-6.716-15-15-15s-15,6.716-15,15v106h-30c0-9.209,0-243.761,0-256c0-8.271,6.729-15,15-15h30h60c24.935,0,46,20.607,46,45
			V316z"/>
	</g>
</g>
<g>
</g>
<g>
</g>
<g>
</g>
<g>
</g>
<g>
</g>
<g>
</g>
<g>
</g>
<g>
</g>
<g>
</g>
<g>
</g>
<g>
</g>
<g>
</g>
<g>
</g>
<g>
</g>
<g>
</g>
</svg>
