<?xml version="1.0"?>
<svg xmlns="http://www.w3.org/2000/svg" xmlns:xlink="http://www.w3.org/1999/xlink" version="1.1" id="Capa_1" x="0px" y="0px" viewBox="0 0 511.999 511.999" style="enable-background:new 0 0 511.999 511.999;" xml:space="preserve" width="512px" height="512px"><g><g>
	<g>
		<path d="M46,75.995H15c-8.284,0-15,6.716-15,15s6.716,15,15,15h31c8.284,0,15-6.716,15-15S54.284,75.995,46,75.995z" data-original="#000000" class="active-path" data-old_color="#000000" fill="#FFFFFF"/>
	</g>
</g><g>
	<g>
		<path d="M86.606,50.388l-30-30c-5.857-5.857-15.355-5.857-21.213,0c-5.858,5.858-5.858,15.355,0,21.213l30,30    c5.858,5.858,15.355,5.858,21.213,0C92.464,65.744,92.464,56.246,86.606,50.388z" data-original="#000000" class="active-path" data-old_color="#000000" fill="#FFFFFF"/>
	</g>
</g><g>
	<g>
		<path d="M86.607,110.388c-5.858-5.857-15.356-5.857-21.213,0l-30,30c-5.858,5.858-5.858,15.355,0,21.213    c5.858,5.858,15.355,5.858,21.213,0l30-30C92.465,125.743,92.465,116.246,86.607,110.388z" data-original="#000000" class="active-path" data-old_color="#000000" fill="#FFFFFF"/>
	</g>
</g><g>
	<g>
		<path d="M507.252,70.869c-0.001-0.002-0.001-0.003-0.002-0.005c-11.102-22.179-38.184-31.207-60.352-20.133l-89.011,44.298    c2.008-5.985,3.112-12.38,3.112-19.033c0-33.084-26.916-60-60-60c-30.047,0-55.003,22.203-59.331,51.064l-98.961-49.48    C132.76,12.604,121,19.846,121,30.995v120c0,11.185,11.797,18.372,21.708,13.417l9.157-4.579    c0.781,3.869,2.069,7.662,3.882,11.289l30,60c11.263,22.525,38.393,31.119,60.378,20.126L271,238.81v24.872l-57.691,173.073    c-7.88,23.619,4.886,49.068,28.436,56.925c23.485,7.865,49.044-4.74,56.948-28.45L331,368.307l32.308,96.923    c7.955,23.865,33.623,36.261,56.932,28.456c23.597-7.873,36.322-33.337,28.453-56.927L391,263.683V178.85l96.126-47.603    C509.321,120.15,518.35,93.064,507.252,70.869z M301,45.995c16.542,0,30,13.458,30,30s-13.458,30-30,30s-30-13.458-30-30    S284.458,45.995,301,45.995z M251.584,109.972c7.297,10.579,17.896,18.7,30.297,22.881l-35.743,17.788l-9.886-19.773    c-1.831-3.662-4.106-6.958-6.715-9.872L251.584,109.972z M162.416,121.015L151,126.724V55.265l71.459,35.729l-30.366,15.183    C180.493,107.172,169.92,112.614,162.416,121.015z M473.762,104.389l-104.418,51.709c-5.11,2.531-8.344,7.74-8.344,13.442v96.577    c0,1.612,0.26,3.214,0.77,4.743l58.464,175.39c2.614,7.836-1.587,16.341-9.505,18.983c-7.844,2.627-16.335-1.614-18.96-9.49    L345.23,316.129c-2.042-6.125-7.774-10.257-14.23-10.257c-6.456,0-12.188,4.131-14.23,10.257l-46.538,139.614    c-2.607,7.824-11.056,12.137-18.976,9.484c-7.85-2.619-12.118-11.094-9.487-18.982L300.23,270.86c0.51-1.53,0.77-3.131,0.77-4.743    V214.54c0-11.144-11.754-18.393-21.708-13.417l-46.582,23.291c-7.29,3.644-16.36,0.829-20.129-6.71l-30-60    c-3.7-7.399-0.69-16.429,6.704-20.127c7.405-3.698,16.438-0.689,20.135,6.707l16.582,33.164c3.699,7.399,12.691,10.406,20.1,6.721    L460.285,77.578c7.399-3.696,16.434-0.686,20.137,6.713C484.118,91.689,481.108,100.716,473.762,104.389z" data-original="#000000" class="active-path" data-old_color="#000000" fill="#FFFFFF"/>
	</g>
</g></g> </svg>
