<?xml version="1.0" encoding="iso-8859-1"?>
<!-- Generator: Adobe Illustrator 19.0.0, SVG Export Plug-In . SVG Version: 6.00 Build 0)  -->
<svg version="1.1" id="Capa_1" xmlns="http://www.w3.org/2000/svg" xmlns:xlink="http://www.w3.org/1999/xlink" x="0px" y="0px"
	 viewBox="0 0 512 512" style="enable-background:new 0 0 512 512;" xml:space="preserve">
<g>
	<g>
		<path d="M452.805,234.127c3.956,0,7.915-1.51,10.933-4.528l43.735-43.735c6.033-6.032,6.039-15.829,0-21.867L354.404,10.927
			c-6.037-6.039-15.827-6.039-21.867,0l-43.735,43.735c-6.033,6.032-6.039,15.829,0,21.867l4.176,4.176l-28.016,9.338
			c-2.778,0.926-5.504,2.016-8.16,3.254l-37.779-12.593l4.176-4.176c6.034-6.034,6.038-15.829,0-21.867l-43.733-43.735
			c-6.038-6.039-15.828-6.039-21.867,0L4.529,163.997c-6.039,6.039-6.039,15.828,0,21.867l43.734,43.735
			c6.034,6.034,15.829,6.038,21.867,0l4.177-4.176l10.933,32.801l-15.109,15.109c-18.087,18.087-18.087,47.515,0,65.602
			c8.389,8.389,19.216,12.879,30.221,13.486c0.616,11.431,5.356,22.092,13.513,30.248c8.388,8.388,19.217,12.879,30.221,13.486
			c0.616,11.431,5.356,22.092,13.513,30.249c8.394,8.394,19.233,12.886,30.247,13.488c0.602,11.013,5.094,21.851,13.488,30.247
			c14.463,14.462,35.799,17.214,52.807,9.072l12.795,12.795c18.128,18.129,47.472,18.131,65.601,0
			c8.156-8.156,12.901-18.813,13.517-30.241c11.004-0.608,21.831-5.106,30.217-13.494c8.393-8.393,12.892-19.228,13.495-30.239
			c11.011-0.603,21.847-5.102,30.24-13.495c8.388-8.388,12.885-19.214,13.494-30.217c11.429-0.617,22.085-5.362,30.24-13.517
			c18.129-18.128,18.132-47.472,0-65.602l-17.337-17.337v-45.139C448.432,233.648,450.615,234.127,452.805,234.127z
			 M274.742,119.381l42.682-14.229c2.826,2.826,96.202,96.202,98.05,98.05v43.734L310.669,142.13
			c-6.038-6.039-15.828-6.039-21.867,0l-43.734,43.734c-6.044,6.044-15.823,6.044-21.867,0c-6.043-6.043-6.043-15.823,0-21.867
			l33.41-33.41C261.677,125.521,267.946,121.647,274.742,119.381z M59.197,196.798L37.33,174.93L168.532,43.727l21.867,21.867
			C179.833,76.161,64.215,191.78,59.197,196.798z M91.999,317.066c-6.029-6.028-6.029-15.839-0.001-21.867l21.867-21.867
			c6.028-6.028,15.839-6.029,21.868,0c6.028,6.028,6.028,15.839,0,21.867l-21.867,21.867
			C107.836,323.096,98.027,323.095,91.999,317.066z M135.731,360.801c-6.044-6.045-6.043-15.824,0-21.867l21.867-21.867
			c6.028-6.028,15.839-6.029,21.867,0c6.044,6.044,6.044,15.823,0,21.867l-21.867,21.867
			C151.569,366.83,141.76,366.83,135.731,360.801z M179.465,404.535c-6.043-6.044-6.043-15.823,0.001-21.867l21.867-21.867
			c6.029-6.029,15.84-6.028,21.867,0c6.028,6.028,6.028,15.839,0,21.867l-21.867,21.867
			C195.304,410.564,185.495,410.564,179.465,404.535z M266.936,426.402l-21.865,21.865c-0.001,0.001-0.002,0.002-0.003,0.002
			l-0.001,0.001c-6.044,6.042-15.824,6.043-21.866,0c-6.029-6.029-6.029-15.839,0-21.868l21.867-21.867
			c6.028-6.028,15.839-6.029,21.868,0C272.98,410.579,272.98,420.358,266.936,426.402z M310.669,470.137
			c-6.043,6.043-15.823,6.044-21.867,0l-10.934-10.934l10.934-10.934c3.783-3.783,6.829-8.107,9.072-12.795l12.794,12.795
			C316.697,454.298,316.697,464.108,310.669,470.137z M441.871,338.933c-6.03,6.029-15.839,6.029-21.867,0l-87.47-87.469
			c-6.038-6.039-15.828-6.039-21.867,0c-3.019,3.019-4.529,6.977-4.529,10.933c0,3.957,1.51,7.915,4.529,10.934l87.47,87.469
			c6.044,6.044,6.044,15.824,0,21.867c-6.029,6.029-15.839,6.029-21.868,0l-87.469-87.469c-6.036-6.039-15.829-6.038-21.867,0
			c-3.019,3.019-4.529,6.977-4.529,10.934s1.509,7.915,4.529,10.933l87.469,87.469c6.028,6.029,6.028,15.839,0,21.867
			c-6.03,6.03-15.838,6.027-21.868,0l-43.734-43.735c-8.394-8.395-19.232-12.886-30.246-13.488
			c-0.602-11.013-5.094-21.851-13.488-30.247c-8.388-8.388-19.217-12.878-30.221-13.486c-0.616-11.431-5.356-22.092-13.513-30.248
			c-8.394-8.394-19.232-12.886-30.245-13.488c-0.602-11.013-5.094-21.851-13.488-30.246c-12.406-12.407-30.15-16.3-45.909-11.685
			l-12.936-38.805l95.821-95.821l32.801,10.934l-26.044,26.044c-18.128,18.128-18.131,47.471,0,65.601
			c18.129,18.129,47.472,18.13,65.602,0l32.801-32.801c4.092,4.092,65.759,65.759,142.136,142.136
			C447.915,323.11,447.915,332.891,441.871,338.933z M321.602,65.594l21.868-21.867L474.672,174.93l-21.868,21.867
			C449.092,193.085,329.344,73.337,321.602,65.594z"/>
	</g>
</g>
<g>
</g>
<g>
</g>
<g>
</g>
<g>
</g>
<g>
</g>
<g>
</g>
<g>
</g>
<g>
</g>
<g>
</g>
<g>
</g>
<g>
</g>
<g>
</g>
<g>
</g>
<g>
</g>
<g>
</g>
</svg>
